<?xml version="1.0" encoding="utf-8"?>
<!-- Generator: Adobe Illustrator 18.0.0, SVG Export Plug-In . SVG Version: 6.00 Build 0)  -->
<!DOCTYPE svg PUBLIC "-//W3C//DTD SVG 1.1//EN" "http://www.w3.org/Graphics/SVG/1.1/DTD/svg11.dtd">
<svg version="1.1"
	 id="svg3070" sodipodi:docname="New document 4" inkscape:version="0.48.0 r9654" xmlns:cc="http://creativecommons.org/ns#" xmlns:sodipodi="http://sodipodi.sourceforge.net/DTD/sodipodi-0.dtd" xmlns:svg="http://www.w3.org/2000/svg" xmlns:dc="http://purl.org/dc/elements/1.1/" xmlns:inkscape="http://www.inkscape.org/namespaces/inkscape" xmlns:rdf="http://www.w3.org/1999/02/22-rdf-syntax-ns#"
	 xmlns="http://www.w3.org/2000/svg" xmlns:xlink="http://www.w3.org/1999/xlink" x="0px" y="0px" viewBox="212 0 79 79.5"
	 enable-background="new 212 0 79 79.5" xml:space="preserve">
<sodipodi:namedview  inkscape:window-maximized="1" inkscape:window-y="-8" inkscape:window-x="-8" inkscape:window-height="750" inkscape:window-width="1280" inkscape:current-layer="layer1" inkscape:document-units="px" inkscape:pageopacity="0.0" fit-margin-right="0" inkscape:pageshadow="2" fit-margin-bottom="0" inkscape:cx="142.93233" inkscape:zoom="2.8" inkscape:cy="33.703355" bordercolor="#666666" pagecolor="#ffffff" fit-margin-top="0" id="base" showgrid="false" borderopacity="1.0" fit-margin-left="0">
	</sodipodi:namedview>
<path fill="#006699" d="M284.1,1.8h-64.6c-3.1,0-5.6,2.4-5.6,5.5v65.3c0,3,2.5,5.5,5.6,5.5h64.6c3.1,0,5.6-2.4,5.6-5.5V7.2
	C289.7,4.2,287.1,1.8,284.1,1.8z M236.9,65.6h-11.4V31.2h11.4V65.6z M231.1,26.5L231.1,26.5L231.1,26.5c-3.9,0-6.4-2.6-6.4-5.9
	c0-3.4,2.6-5.9,6.5-5.9c3.9,0,6.3,2.6,6.4,5.9C237.6,23.8,235.1,26.5,231.1,26.5z M278.1,65.6h-11.4V47.2c0-4.6-1.7-7.8-5.8-7.8
	c-3.2,0-5,2.1-5.9,4.2c-0.3,0.7-0.4,1.8-0.4,2.8v19.2h-11.4c0,0,0.2-31.2,0-34.4h11.4v4.9c1.5-2.3,4.2-5.7,10.3-5.7
	c7.5,0,13.2,4.9,13.2,15.5V65.6z"/>
</svg>
