<?xml version="1.0" encoding="utf-8"?>
<!-- Generator: Adobe Illustrator 18.0.0, SVG Export Plug-In . SVG Version: 6.00 Build 0)  -->
<!DOCTYPE svg PUBLIC "-//W3C//DTD SVG 1.1//EN" "http://www.w3.org/Graphics/SVG/1.1/DTD/svg11.dtd">
<svg version="1.1" id="Layer_1" xmlns="http://www.w3.org/2000/svg" xmlns:xlink="http://www.w3.org/1999/xlink" x="0px" y="0px"
	 viewBox="0 0 1024 1024" enable-background="new 0 0 1024 1024" xml:space="preserve">
<path fill="#E6162D" d="M430.3,866c-169.6,16.8-315.9-59.9-327-171.1c-11-111.3,117.6-215.1,287-231.9
	c169.6-16.8,315.9,59.9,326.8,171.1C728.3,745.5,599.7,849.4,430.3,866 M769.2,496.5c-14.4-4.4-24.3-7.2-16.8-26.1
	c16.4-41.1,18.1-76.6,0.3-102c-33.2-47.5-124.2-44.9-228.5-1.3c0,0-32.8,14.3-24.3-11.6c16-51.6,13.6-94.7-11.3-119.7
	c-56.5-56.7-207,2.1-336,131.1C56.1,463.5,0,565.9,0,654.5c0,169.3,217.2,272.3,429.6,272.3c278.5,0,463.7-161.8,463.7-290.2
	C893.4,558.8,828,514.8,769.2,496.5"/>
<path fill="#FF9933" d="M954.2,186.7c-67.3-74.6-166.5-103-258-83.5l0,0c-21.2,4.5-34.6,25.4-30.1,46.5
	c4.5,21.2,25.3,34.6,46.5,30.1c65.1-13.8,135.6,6.4,183.4,59.3s60.8,125.2,40.3,188.5l0,0c-6.6,20.6,4.7,42.7,25.3,49.3
	c20.6,6.6,42.7-4.7,49.3-25.2v-0.1C1039.7,362.7,1021.5,261.1,954.2,186.7"/>
<path fill="#FF9933" d="M850.9,279.9c-32.8-36.3-81.1-50.2-125.6-40.6c-18.2,3.8-29.8,21.9-26,40.1c4,18.2,21.9,29.8,40,25.9l0,0
	c21.8-4.7,45.5,2.1,61.5,19.8c16,17.8,20.3,42,13.4,63.2l0,0c-5.7,17.7,4,36.7,21.8,42.5c17.8,5.7,36.7-4,42.5-21.8
	C892.4,365.7,883.7,316.2,850.9,279.9"/>
<path d="M439.6,664.5c-5.9,10.2-19.1,15-29.2,10.7c-10.2-4.1-13.3-15.5-7.5-25.4c5.9-9.9,18.5-14.7,28.5-10.7
	C441.6,642.8,445.2,654.2,439.6,664.5 M385.5,733.8c-16.4,26.1-51.6,37.6-78,25.6c-26-11.9-33.8-42.2-17.4-67.8
	c16.2-25.4,50.2-36.7,76.4-25.7C393.1,677.3,401.6,707.3,385.5,733.8 M447.1,548.7c-80.7-21.1-171.8,19.2-206.9,90.3
	c-35.7,72.5-1.1,153,80.3,179.3c84.5,27.3,184-14.6,218.6-92.7C573.3,649,530.6,570.3,447.1,548.7"/>
</svg>
